<mxfile host="app.diagrams.net" modified="2021-11-10T07:50:04.823Z" agent="5.0 (Windows)" etag="Opf1jxS8Eisyk_HWck5l" version="15.7.0" type="github" pages="2">
  <diagram id="6a731a19-8d31-9384-78a2-239565b7b9f0" name="Page-1">
    <mxGraphModel dx="1254" dy="-47" grid="1" gridSize="10" guides="1" tooltips="1" connect="1" arrows="1" fold="1" page="1" pageScale="1" pageWidth="1169" pageHeight="827" background="none" math="0" shadow="0">
      <root>
        <mxCell id="0" />
        <mxCell id="1" parent="0" />
        <mxCell id="56" value="&lt;p style=&quot;line-height: 1&quot;&gt;中信改版工作流程&lt;/p&gt;" style="strokeColor=#BAC8D3;fillColor=#23445D;fontSize=24;strokeWidth=2;fontFamily=Helvetica;html=1;fontColor=#FFFFFF;fontStyle=0;spacingBottom=8;spacingRight=0;spacingLeft=83;" parent="1" vertex="1">
          <mxGeometry x="154" y="850.5" width="2030" height="49.5" as="geometry" />
        </mxCell>
        <mxCell id="57" value="版面設計" style="strokeColor=#BAC8D3;fillColor=#23445D;fontSize=24;strokeWidth=2;horizontal=0;fontFamily=Helvetica;html=1;fontColor=#FFFFFF;fontStyle=0" parent="1" vertex="1">
          <mxGeometry x="154" y="930.5" width="50" height="300" as="geometry" />
        </mxCell>
        <mxCell id="58" value="Lane 1.1" style="strokeColor=#BAC8D3;fillColor=#5d7f99;fontSize=19;strokeWidth=2;horizontal=0;fontFamily=Helvetica;html=1;labelBackgroundColor=none;fontColor=#FFFFFF;" parent="1" vertex="1">
          <mxGeometry x="204" y="930.5" width="40" height="100" as="geometry" />
        </mxCell>
        <mxCell id="59" value="v 1.0" style="strokeColor=#BAC8D3;fillColor=#5d7f99;fontSize=19;strokeWidth=2;fontFamily=Helvetica;html=1;labelBackgroundColor=none;fontColor=#FFFFFF;" parent="1" vertex="1">
          <mxGeometry x="154" y="850.5" width="90" height="80" as="geometry" />
        </mxCell>
        <mxCell id="60" value="Lane 1.2" style="strokeColor=#BAC8D3;fillColor=#5d7f99;fontSize=19;strokeWidth=2;horizontal=0;fontFamily=Helvetica;html=1;labelBackgroundColor=none;fontColor=#FFFFFF;" parent="1" vertex="1">
          <mxGeometry x="204" y="1030.5" width="40" height="100" as="geometry" />
        </mxCell>
        <mxCell id="61" value="Lane 1.3" style="strokeColor=#BAC8D3;fillColor=#5d7f99;fontSize=19;strokeWidth=2;horizontal=0;fontFamily=Helvetica;html=1;labelBackgroundColor=none;fontColor=#FFFFFF;" parent="1" vertex="1">
          <mxGeometry x="204" y="1130.5" width="40" height="100" as="geometry" />
        </mxCell>
        <mxCell id="62" value="Lane 2.2" style="strokeColor=#BAC8D3;fillColor=#5d7f99;fontSize=19;strokeWidth=2;horizontal=0;fontFamily=Helvetica;html=1;labelBackgroundColor=none;fontColor=#FFFFFF;" parent="1" vertex="1">
          <mxGeometry x="204" y="1330.5" width="40" height="100" as="geometry" />
        </mxCell>
        <mxCell id="63" value="Lane 2.1" style="strokeColor=#BAC8D3;fillColor=#5d7f99;fontSize=19;strokeWidth=2;horizontal=0;fontFamily=Helvetica;html=1;labelBackgroundColor=none;fontColor=#FFFFFF;" parent="1" vertex="1">
          <mxGeometry x="204" y="1230.5" width="40" height="100" as="geometry" />
        </mxCell>
        <mxCell id="64" value="頁面切版" style="strokeColor=#BAC8D3;fillColor=#23445D;fontSize=24;strokeWidth=2;horizontal=0;fontFamily=Helvetica;html=1;fontColor=#FFFFFF;fontStyle=0" parent="1" vertex="1">
          <mxGeometry x="154" y="1230.5" width="50" height="200" as="geometry" />
        </mxCell>
        <mxCell id="65" value="Lane 3.2" style="strokeColor=#BAC8D3;fillColor=#5d7f99;fontSize=19;strokeWidth=2;horizontal=0;fontFamily=Helvetica;html=1;labelBackgroundColor=none;fontColor=#FFFFFF;" parent="1" vertex="1">
          <mxGeometry x="204" y="1530.5" width="40" height="100" as="geometry" />
        </mxCell>
        <mxCell id="66" value="Lane 3.1" style="strokeColor=#BAC8D3;fillColor=#5d7f99;fontSize=19;strokeWidth=2;horizontal=0;fontFamily=Helvetica;html=1;labelBackgroundColor=none;fontColor=#FFFFFF;" parent="1" vertex="1">
          <mxGeometry x="204" y="1430.5" width="40" height="100" as="geometry" />
        </mxCell>
        <mxCell id="67" value="資料串接" style="strokeColor=#BAC8D3;fillColor=#23445D;fontSize=24;strokeWidth=2;horizontal=0;fontFamily=Helvetica;html=1;fontColor=#FFFFFF;fontStyle=0" parent="1" vertex="1">
          <mxGeometry x="154" y="1430.5" width="50" height="200" as="geometry" />
        </mxCell>
        <mxCell id="68" value="" style="strokeColor=#FFFFFF;fillColor=#BAC8D3;fontSize=18;strokeWidth=2;fontFamily=Helvetica;html=1;opacity=60;" parent="1" vertex="1">
          <mxGeometry x="244" y="930.5" width="646.6666666666666" height="100" as="geometry" />
        </mxCell>
        <mxCell id="69" value="" style="strokeColor=#FFFFFF;fillColor=#BAC8D3;fontSize=18;strokeWidth=2;fontFamily=Helvetica;html=1;opacity=90;" parent="1" vertex="1">
          <mxGeometry x="244" y="1030.5" width="646.6666666666666" height="100" as="geometry" />
        </mxCell>
        <mxCell id="70" value="" style="strokeColor=#FFFFFF;fillColor=#BAC8D3;fontSize=18;strokeWidth=2;fontFamily=Helvetica;html=1;opacity=60;" parent="1" vertex="1">
          <mxGeometry x="244" y="1130.5" width="646.6666666666666" height="100" as="geometry" />
        </mxCell>
        <mxCell id="71" value="" style="strokeColor=#FFFFFF;fillColor=#BAC8D3;fontSize=18;strokeWidth=2;fontFamily=Helvetica;html=1;opacity=90;" parent="1" vertex="1">
          <mxGeometry x="244" y="1230.5" width="646.6666666666666" height="100" as="geometry" />
        </mxCell>
        <mxCell id="72" value="" style="strokeColor=#FFFFFF;fillColor=#BAC8D3;fontSize=18;strokeWidth=2;fontFamily=Helvetica;html=1;opacity=60;" parent="1" vertex="1">
          <mxGeometry x="244" y="1330.5" width="646.6666666666666" height="100" as="geometry" />
        </mxCell>
        <mxCell id="73" value="" style="strokeColor=#FFFFFF;fillColor=#BAC8D3;fontSize=18;strokeWidth=2;fontFamily=Helvetica;html=1;opacity=90;" parent="1" vertex="1">
          <mxGeometry x="244" y="1430.5" width="646.6666666666666" height="100" as="geometry" />
        </mxCell>
        <mxCell id="74" value="" style="strokeColor=#FFFFFF;fillColor=#BAC8D3;fontSize=18;strokeWidth=2;fontFamily=Helvetica;html=1;opacity=60;" parent="1" vertex="1">
          <mxGeometry x="244" y="1530.5" width="646.6666666666666" height="100" as="geometry" />
        </mxCell>
        <mxCell id="75" value="" style="strokeColor=#FFFFFF;fillColor=#BAC8D3;fontSize=18;strokeWidth=2;fontFamily=Helvetica;html=1;opacity=60;" parent="1" vertex="1">
          <mxGeometry x="890.6666666666666" y="930.5" width="647" height="100" as="geometry" />
        </mxCell>
        <mxCell id="76" value="" style="strokeColor=#FFFFFF;fillColor=#BAC8D3;fontSize=18;strokeWidth=2;fontFamily=Helvetica;html=1;opacity=90;" parent="1" vertex="1">
          <mxGeometry x="890.6666666666666" y="1030.5" width="646.6666666666666" height="100" as="geometry" />
        </mxCell>
        <mxCell id="77" value="" style="strokeColor=#FFFFFF;fillColor=#BAC8D3;fontSize=18;strokeWidth=2;fontFamily=Helvetica;html=1;opacity=60;" parent="1" vertex="1">
          <mxGeometry x="890.6666666666666" y="1130.5" width="646.6666666666666" height="100" as="geometry" />
        </mxCell>
        <mxCell id="78" value="" style="strokeColor=#FFFFFF;fillColor=#BAC8D3;fontSize=18;strokeWidth=2;fontFamily=Helvetica;html=1;opacity=90;" parent="1" vertex="1">
          <mxGeometry x="890.6666666666666" y="1230.5" width="646.6666666666666" height="100" as="geometry" />
        </mxCell>
        <mxCell id="79" value="" style="strokeColor=#FFFFFF;fillColor=#BAC8D3;fontSize=18;strokeWidth=2;fontFamily=Helvetica;html=1;opacity=60;" parent="1" vertex="1">
          <mxGeometry x="890.6666666666666" y="1330.5" width="646.6666666666666" height="100" as="geometry" />
        </mxCell>
        <mxCell id="80" value="" style="strokeColor=#FFFFFF;fillColor=#BAC8D3;fontSize=18;strokeWidth=2;fontFamily=Helvetica;html=1;opacity=90;" parent="1" vertex="1">
          <mxGeometry x="890.6666666666666" y="1430.5" width="646.6666666666666" height="100" as="geometry" />
        </mxCell>
        <mxCell id="81" value="" style="strokeColor=#FFFFFF;fillColor=#BAC8D3;fontSize=18;strokeWidth=2;fontFamily=Helvetica;html=1;opacity=60;fontStyle=4" parent="1" vertex="1">
          <mxGeometry x="890.6666666666666" y="1530.5" width="646.6666666666666" height="100" as="geometry" />
        </mxCell>
        <mxCell id="82" value="" style="strokeColor=#FFFFFF;fillColor=#BAC8D3;fontSize=18;strokeWidth=2;fontFamily=Helvetica;html=1;opacity=60;" parent="1" vertex="1">
          <mxGeometry x="1537.3333333333333" y="930.5" width="647" height="100" as="geometry" />
        </mxCell>
        <mxCell id="83" value="" style="strokeColor=#FFFFFF;fillColor=#BAC8D3;fontSize=18;strokeWidth=2;fontFamily=Helvetica;html=1;opacity=90;" parent="1" vertex="1">
          <mxGeometry x="1537.3333333333333" y="1030.5" width="646.6666666666666" height="100" as="geometry" />
        </mxCell>
        <mxCell id="84" value="" style="strokeColor=#FFFFFF;fillColor=#BAC8D3;fontSize=18;strokeWidth=2;fontFamily=Helvetica;html=1;opacity=60;" parent="1" vertex="1">
          <mxGeometry x="1537.3333333333333" y="1130.5" width="646.6666666666666" height="100" as="geometry" />
        </mxCell>
        <mxCell id="85" value="" style="strokeColor=#FFFFFF;fillColor=#BAC8D3;fontSize=18;strokeWidth=2;fontFamily=Helvetica;html=1;opacity=90;" parent="1" vertex="1">
          <mxGeometry x="1537.3333333333333" y="1230.5" width="646.6666666666666" height="100" as="geometry" />
        </mxCell>
        <mxCell id="86" value="" style="strokeColor=#FFFFFF;fillColor=#BAC8D3;fontSize=18;strokeWidth=2;fontFamily=Helvetica;html=1;opacity=60;" parent="1" vertex="1">
          <mxGeometry x="1537.3333333333333" y="1330.5" width="646.6666666666666" height="100" as="geometry" />
        </mxCell>
        <mxCell id="87" value="" style="strokeColor=#FFFFFF;fillColor=#BAC8D3;fontSize=18;strokeWidth=2;fontFamily=Helvetica;html=1;opacity=90;" parent="1" vertex="1">
          <mxGeometry x="1537.3333333333333" y="1430.5" width="646.6666666666666" height="100" as="geometry" />
        </mxCell>
        <mxCell id="88" value="" style="strokeColor=#FFFFFF;fillColor=#BAC8D3;fontSize=18;strokeWidth=2;fontFamily=Helvetica;html=1;opacity=60;fontStyle=4" parent="1" vertex="1">
          <mxGeometry x="1537.3333333333333" y="1530.5" width="646.6666666666666" height="100" as="geometry" />
        </mxCell>
        <mxCell id="89" style="edgeStyle=orthogonalEdgeStyle;rounded=1;jumpStyle=none;html=1;exitX=1;exitY=0.5;entryX=0;entryY=0.5;labelBackgroundColor=#ffffff;startArrow=none;startFill=0;endArrow=classic;jettySize=auto;orthogonalLoop=1;strokeColor=#0C343D;strokeWidth=3;fontFamily=Helvetica;fontSize=11;fontColor=#000000;" parent="1" source="90" target="92" edge="1">
          <mxGeometry relative="1" as="geometry">
            <Array as="points">
              <mxPoint x="422" y="980.5" />
              <mxPoint x="422" y="1180.5" />
            </Array>
          </mxGeometry>
        </mxCell>
        <mxCell id="90" value="Cadmus" style="rounded=1;fillColor=#23445D;strokeColor=none;strokeWidth=2;fontFamily=Helvetica;html=1;gradientColor=none;fontColor=#FFFFFF;" parent="1" vertex="1">
          <mxGeometry x="270.3945578231293" y="955.5" width="127" height="50" as="geometry" />
        </mxCell>
        <mxCell id="91" value="" style="rounded=1;fillColor=#23445D;strokeColor=none;strokeWidth=2;fontFamily=Helvetica;html=1;gradientColor=none;" parent="1" vertex="1">
          <mxGeometry x="715.9047619047619" y="955.5" width="127" height="50" as="geometry" />
        </mxCell>
        <mxCell id="92" value="Howard" style="rounded=1;fillColor=#23445D;strokeColor=none;strokeWidth=2;fontFamily=Helvetica;html=1;gradientColor=none;fontColor=#FFFFFF;" parent="1" vertex="1">
          <mxGeometry x="478.3537414965986" y="1155.5" width="127" height="50" as="geometry" />
        </mxCell>
        <mxCell id="93" value="" style="rounded=1;fillColor=#23445D;strokeColor=none;strokeWidth=2;fontFamily=Helvetica;html=1;gradientColor=none;" parent="1" vertex="1">
          <mxGeometry x="715.9047619047619" y="1255.5" width="127" height="50" as="geometry" />
        </mxCell>
        <mxCell id="94" value="" style="rounded=1;fillColor=#23445D;strokeColor=none;strokeWidth=2;fontFamily=Helvetica;html=1;gradientColor=none;" parent="1" vertex="1">
          <mxGeometry x="715.9047619047619" y="1355.5" width="127" height="50" as="geometry" />
        </mxCell>
        <mxCell id="95" value="" style="rounded=1;fillColor=#23445D;strokeColor=none;strokeWidth=2;fontFamily=Helvetica;html=1;gradientColor=none;" parent="1" vertex="1">
          <mxGeometry x="478.3537414965986" y="1455.5" width="127" height="50" as="geometry" />
        </mxCell>
        <mxCell id="96" value="" style="rounded=1;fillColor=#23445D;strokeColor=none;strokeWidth=2;fontFamily=Helvetica;html=1;gradientColor=none;" parent="1" vertex="1">
          <mxGeometry x="478.3537414965986" y="1355.5" width="127" height="50" as="geometry" />
        </mxCell>
        <mxCell id="97" value="" style="rounded=1;fillColor=#23445D;strokeColor=none;strokeWidth=2;fontFamily=Helvetica;html=1;gradientColor=none;" parent="1" vertex="1">
          <mxGeometry x="1161.4149659863945" y="1055.5" width="127" height="50" as="geometry" />
        </mxCell>
        <mxCell id="98" value="" style="rounded=1;fillColor=#23445D;strokeColor=none;strokeWidth=2;fontFamily=Helvetica;html=1;gradientColor=none;" parent="1" vertex="1">
          <mxGeometry x="1372.5714285714284" y="955.5" width="127" height="50" as="geometry" />
        </mxCell>
        <mxCell id="99" value="" style="rounded=1;fillColor=#23445D;strokeColor=none;strokeWidth=2;gradientColor=none;fontFamily=Helvetica;html=1;" parent="1" vertex="1">
          <mxGeometry x="2029.2380952380952" y="1455.5" width="127" height="50" as="geometry" />
        </mxCell>
        <mxCell id="100" value="" style="rounded=1;fillColor=#23445D;strokeColor=none;strokeWidth=2;fontFamily=Helvetica;html=1;gradientColor=none;" parent="1" vertex="1">
          <mxGeometry x="1161.4149659863945" y="1255.5" width="127" height="50" as="geometry" />
        </mxCell>
        <mxCell id="101" value="" style="rounded=1;fillColor=#23445D;strokeColor=none;strokeWidth=2;fontFamily=Helvetica;html=1;gradientColor=none;" parent="1" vertex="1">
          <mxGeometry x="1161.4149659863945" y="1555.5" width="127" height="50" as="geometry" />
        </mxCell>
        <mxCell id="102" value="" style="rounded=1;fillColor=#23445D;strokeColor=none;strokeWidth=2;fontFamily=Helvetica;html=1;gradientColor=none;" parent="1" vertex="1">
          <mxGeometry x="940.2585034013605" y="1455.5" width="127" height="50" as="geometry" />
        </mxCell>
        <mxCell id="103" value="" style="rounded=1;fillColor=#23445D;strokeColor=none;strokeWidth=2;fontFamily=Helvetica;html=1;gradientColor=none;" parent="1" vertex="1">
          <mxGeometry x="1161.4149659863945" y="1455.5" width="127" height="50" as="geometry" />
        </mxCell>
        <mxCell id="104" value="" style="rounded=1;fillColor=#23445D;strokeColor=none;strokeWidth=2;fontFamily=Helvetica;html=1;gradientColor=none;" parent="1" vertex="1">
          <mxGeometry x="940.2585034013605" y="1255.5" width="127" height="50" as="geometry" />
        </mxCell>
        <mxCell id="105" value="" style="rounded=1;fillColor=#23445D;strokeColor=none;strokeWidth=2;fontFamily=Helvetica;html=1;gradientColor=none;" parent="1" vertex="1">
          <mxGeometry x="1372.5714285714284" y="1155.5" width="127" height="50" as="geometry" />
        </mxCell>
        <mxCell id="106" value="" style="rounded=1;fillColor=#23445D;strokeColor=none;strokeWidth=2;gradientColor=none;fontFamily=Helvetica;html=1;" parent="1" vertex="1">
          <mxGeometry x="1586.9251700680272" y="1355.5" width="127" height="50" as="geometry" />
        </mxCell>
        <mxCell id="107" value="" style="rounded=1;fillColor=#23445D;strokeColor=none;strokeWidth=2;gradientColor=none;fontFamily=Helvetica;html=1;" parent="1" vertex="1">
          <mxGeometry x="1808.0816326530612" y="1355.5" width="127" height="50" as="geometry" />
        </mxCell>
        <mxCell id="108" value="" style="rounded=1;fillColor=#23445D;strokeColor=none;strokeWidth=2;gradientColor=none;fontFamily=Helvetica;html=1;" parent="1" vertex="1">
          <mxGeometry x="1573.7278911564624" y="1055.5" width="127" height="50" as="geometry" />
        </mxCell>
        <mxCell id="109" value="" style="rounded=1;fillColor=#23445D;strokeColor=none;strokeWidth=2;gradientColor=none;fontFamily=Helvetica;html=1;" parent="1" vertex="1">
          <mxGeometry x="1586.9251700680272" y="1455.5" width="127" height="50" as="geometry" />
        </mxCell>
        <mxCell id="110" value="" style="rounded=1;fillColor=#23445D;strokeColor=none;strokeWidth=2;gradientColor=none;fontFamily=Helvetica;html=1;" parent="1" vertex="1">
          <mxGeometry x="1808.0816326530612" y="1555.5" width="127" height="50" as="geometry" />
        </mxCell>
        <mxCell id="111" value="" style="rounded=1;fillColor=#23445D;strokeColor=none;strokeWidth=2;gradientColor=none;fontFamily=Helvetica;html=1;" parent="1" vertex="1">
          <mxGeometry x="1808.0816326530612" y="955.5" width="127" height="50" as="geometry" />
        </mxCell>
        <mxCell id="112" value="" style="edgeStyle=elbowEdgeStyle;elbow=horizontal;strokeWidth=3;strokeColor=#0C343D;fontFamily=Helvetica;html=1;" parent="1" source="90" target="96" edge="1">
          <mxGeometry x="6.448979591836746" y="830.5" width="131.97278911564624" height="100" as="geometry">
            <mxPoint x="6.448979591836746" y="930.5" as="sourcePoint" />
            <mxPoint x="138.421768707483" y="830.5" as="targetPoint" />
            <Array as="points">
              <mxPoint x="422" y="1193.5" />
            </Array>
          </mxGeometry>
        </mxCell>
        <mxCell id="113" value="" style="edgeStyle=elbowEdgeStyle;elbow=horizontal;strokeWidth=3;strokeColor=#0C343D;fontFamily=Helvetica;html=1;" parent="1" source="90" target="95" edge="1">
          <mxGeometry x="6.448979591836746" y="830.5" width="131.97278911564624" height="100" as="geometry">
            <mxPoint x="6.448979591836746" y="930.5" as="sourcePoint" />
            <mxPoint x="138.421768707483" y="830.5" as="targetPoint" />
            <Array as="points">
              <mxPoint x="422" y="1102.5" />
            </Array>
          </mxGeometry>
        </mxCell>
        <mxCell id="114" value="" style="edgeStyle=elbowEdgeStyle;elbow=horizontal;strokeWidth=3;strokeColor=#0C343D;fontFamily=Helvetica;html=1;" parent="1" source="92" target="91" edge="1">
          <mxGeometry x="6.448979591836746" y="830.5" width="131.97278911564624" height="100" as="geometry">
            <mxPoint x="6.448979591836746" y="930.5" as="sourcePoint" />
            <mxPoint x="138.421768707483" y="830.5" as="targetPoint" />
          </mxGeometry>
        </mxCell>
        <mxCell id="115" value="" style="edgeStyle=elbowEdgeStyle;elbow=horizontal;strokeWidth=3;strokeColor=#0C343D;fontFamily=Helvetica;html=1;" parent="1" source="92" target="93" edge="1">
          <mxGeometry x="6.448979591836746" y="830.5" width="131.97278911564624" height="100" as="geometry">
            <mxPoint x="6.448979591836746" y="930.5" as="sourcePoint" />
            <mxPoint x="138.421768707483" y="830.5" as="targetPoint" />
          </mxGeometry>
        </mxCell>
        <mxCell id="116" value="" style="edgeStyle=elbowEdgeStyle;elbow=horizontal;strokeWidth=3;strokeColor=#0C343D;fontFamily=Helvetica;html=1;" parent="1" source="96" target="93" edge="1">
          <mxGeometry x="6.448979591836746" y="830.5" width="131.97278911564624" height="100" as="geometry">
            <mxPoint x="6.448979591836746" y="930.5" as="sourcePoint" />
            <mxPoint x="138.421768707483" y="830.5" as="targetPoint" />
          </mxGeometry>
        </mxCell>
        <mxCell id="117" value="" style="edgeStyle=elbowEdgeStyle;elbow=horizontal;strokeWidth=3;strokeColor=#0C343D;fontFamily=Helvetica;html=1;" parent="1" source="96" target="94" edge="1">
          <mxGeometry x="6.448979591836746" y="830.5" width="131.97278911564624" height="100" as="geometry">
            <mxPoint x="6.448979591836746" y="930.5" as="sourcePoint" />
            <mxPoint x="138.421768707483" y="830.5" as="targetPoint" />
          </mxGeometry>
        </mxCell>
        <mxCell id="118" value="" style="edgeStyle=elbowEdgeStyle;elbow=horizontal;strokeWidth=3;strokeColor=#0C343D;fontFamily=Helvetica;html=1;" parent="1" source="95" target="94" edge="1">
          <mxGeometry x="6.448979591836746" y="830.5" width="131.97278911564624" height="100" as="geometry">
            <mxPoint x="6.448979591836746" y="930.5" as="sourcePoint" />
            <mxPoint x="138.421768707483" y="830.5" as="targetPoint" />
            <Array as="points">
              <mxPoint x="668.952380952381" y="1434.5" />
            </Array>
          </mxGeometry>
        </mxCell>
        <mxCell id="119" value="" style="edgeStyle=elbowEdgeStyle;elbow=horizontal;strokeWidth=3;strokeColor=#0C343D;fontFamily=Helvetica;html=1;" parent="1" source="91" target="97" edge="1">
          <mxGeometry x="6.448979591836746" y="830.5" width="131.97278911564624" height="100" as="geometry">
            <mxPoint x="6.448979591836746" y="930.5" as="sourcePoint" />
            <mxPoint x="138.421768707483" y="830.5" as="targetPoint" />
          </mxGeometry>
        </mxCell>
        <mxCell id="120" value="" style="edgeStyle=elbowEdgeStyle;elbow=horizontal;strokeWidth=3;strokeColor=#0C343D;fontFamily=Helvetica;html=1;" parent="1" source="93" target="104" edge="1">
          <mxGeometry x="6.448979591836746" y="830.5" width="131.97278911564624" height="100" as="geometry">
            <mxPoint x="6.448979591836746" y="930.5" as="sourcePoint" />
            <mxPoint x="138.421768707483" y="830.5" as="targetPoint" />
          </mxGeometry>
        </mxCell>
        <mxCell id="121" value="" style="edgeStyle=elbowEdgeStyle;elbow=horizontal;strokeWidth=3;strokeColor=#0C343D;fontFamily=Helvetica;html=1;" parent="1" source="104" target="100" edge="1">
          <mxGeometry x="6.448979591836746" y="830.5" width="131.97278911564624" height="100" as="geometry">
            <mxPoint x="6.448979591836746" y="930.5" as="sourcePoint" />
            <mxPoint x="138.421768707483" y="830.5" as="targetPoint" />
          </mxGeometry>
        </mxCell>
        <mxCell id="122" value="" style="edgeStyle=elbowEdgeStyle;elbow=horizontal;strokeWidth=3;strokeColor=#0C343D;fontFamily=Helvetica;html=1;" parent="1" source="91" target="98" edge="1">
          <mxGeometry x="6.448979591836746" y="830.5" width="131.97278911564624" height="100" as="geometry">
            <mxPoint x="6.448979591836746" y="930.5" as="sourcePoint" />
            <mxPoint x="138.421768707483" y="830.5" as="targetPoint" />
          </mxGeometry>
        </mxCell>
        <mxCell id="123" value="" style="edgeStyle=elbowEdgeStyle;elbow=horizontal;strokeWidth=3;strokeColor=#0C343D;fontFamily=Helvetica;html=1;" parent="1" source="94" target="102" edge="1">
          <mxGeometry x="6.448979591836746" y="830.5" width="131.97278911564624" height="100" as="geometry">
            <mxPoint x="6.448979591836746" y="930.5" as="sourcePoint" />
            <mxPoint x="138.421768707483" y="830.5" as="targetPoint" />
            <Array as="points">
              <mxPoint x="877.4693877551019" y="1430.5" />
            </Array>
          </mxGeometry>
        </mxCell>
        <mxCell id="124" value="" style="edgeStyle=elbowEdgeStyle;elbow=horizontal;strokeWidth=3;strokeColor=#0C343D;fontFamily=Helvetica;html=1;" parent="1" source="102" target="103" edge="1">
          <mxGeometry x="6.448979591836746" y="830.5" width="131.97278911564624" height="100" as="geometry">
            <mxPoint x="6.448979591836746" y="930.5" as="sourcePoint" />
            <mxPoint x="138.421768707483" y="830.5" as="targetPoint" />
          </mxGeometry>
        </mxCell>
        <mxCell id="125" value="" style="edgeStyle=elbowEdgeStyle;elbow=horizontal;strokeWidth=3;strokeColor=#0C343D;fontFamily=Helvetica;html=1;" parent="1" source="102" target="101" edge="1">
          <mxGeometry x="6.448979591836746" y="830.5" width="131.97278911564624" height="100" as="geometry">
            <mxPoint x="6.448979591836746" y="930.5" as="sourcePoint" />
            <mxPoint x="138.421768707483" y="830.5" as="targetPoint" />
          </mxGeometry>
        </mxCell>
        <mxCell id="126" value="" style="edgeStyle=elbowEdgeStyle;elbow=horizontal;strokeWidth=3;strokeColor=#0C343D;fontFamily=Helvetica;html=1;" parent="1" source="101" target="110" edge="1">
          <mxGeometry x="6.448979591836746" y="830.5" width="131.97278911564624" height="100" as="geometry">
            <mxPoint x="6.448979591836746" y="930.5" as="sourcePoint" />
            <mxPoint x="138.421768707483" y="830.5" as="targetPoint" />
          </mxGeometry>
        </mxCell>
        <mxCell id="127" value="" style="edgeStyle=elbowEdgeStyle;elbow=horizontal;strokeWidth=3;strokeColor=#0C343D;fontFamily=Helvetica;html=1;" parent="1" source="110" target="99" edge="1">
          <mxGeometry x="6.448979591836746" y="830.5" width="131.97278911564624" height="100" as="geometry">
            <mxPoint x="6.448979591836746" y="930.5" as="sourcePoint" />
            <mxPoint x="138.421768707483" y="830.5" as="targetPoint" />
          </mxGeometry>
        </mxCell>
        <mxCell id="128" value="" style="edgeStyle=elbowEdgeStyle;elbow=horizontal;strokeWidth=3;strokeColor=#0C343D;fontFamily=Helvetica;html=1;" parent="1" source="108" target="99" edge="1">
          <mxGeometry x="6.448979591836746" y="830.5" width="131.97278911564624" height="100" as="geometry">
            <mxPoint x="6.448979591836746" y="930.5" as="sourcePoint" />
            <mxPoint x="138.421768707483" y="830.5" as="targetPoint" />
            <Array as="points">
              <mxPoint x="1776" y="1280.5" />
            </Array>
          </mxGeometry>
        </mxCell>
        <mxCell id="129" value="" style="edgeStyle=elbowEdgeStyle;elbow=horizontal;strokeWidth=3;strokeColor=#0C343D;fontFamily=Helvetica;html=1;" parent="1" source="109" target="110" edge="1">
          <mxGeometry x="6.448979591836746" y="830.5" width="131.97278911564624" height="100" as="geometry">
            <mxPoint x="6.448979591836746" y="930.5" as="sourcePoint" />
            <mxPoint x="138.421768707483" y="830.5" as="targetPoint" />
          </mxGeometry>
        </mxCell>
        <mxCell id="130" value="" style="edgeStyle=elbowEdgeStyle;elbow=horizontal;strokeWidth=3;strokeColor=#0C343D;fontFamily=Helvetica;html=1;" parent="1" source="103" target="106" edge="1">
          <mxGeometry x="6.448979591836746" y="830.5" width="131.97278911564624" height="100" as="geometry">
            <mxPoint x="6.448979591836746" y="930.5" as="sourcePoint" />
            <mxPoint x="138.421768707483" y="830.5" as="targetPoint" />
          </mxGeometry>
        </mxCell>
        <mxCell id="131" value="" style="edgeStyle=elbowEdgeStyle;elbow=horizontal;strokeWidth=3;strokeColor=#0C343D;fontFamily=Helvetica;html=1;" parent="1" source="103" target="109" edge="1">
          <mxGeometry x="6.448979591836746" y="830.5" width="131.97278911564624" height="100" as="geometry">
            <mxPoint x="6.448979591836746" y="930.5" as="sourcePoint" />
            <mxPoint x="138.421768707483" y="830.5" as="targetPoint" />
          </mxGeometry>
        </mxCell>
        <mxCell id="132" value="" style="edgeStyle=elbowEdgeStyle;elbow=horizontal;strokeWidth=3;strokeColor=#0C343D;fontFamily=Helvetica;html=1;" parent="1" source="100" target="105" edge="1">
          <mxGeometry x="6.448979591836746" y="830.5" width="131.97278911564624" height="100" as="geometry">
            <mxPoint x="6.448979591836746" y="930.5" as="sourcePoint" />
            <mxPoint x="138.421768707483" y="830.5" as="targetPoint" />
          </mxGeometry>
        </mxCell>
        <mxCell id="133" value="" style="edgeStyle=elbowEdgeStyle;elbow=horizontal;strokeWidth=3;strokeColor=#0C343D;fontFamily=Helvetica;html=1;" parent="1" source="97" target="108" edge="1">
          <mxGeometry x="6.448979591836746" y="830.5" width="131.97278911564624" height="100" as="geometry">
            <mxPoint x="6.448979591836746" y="930.5" as="sourcePoint" />
            <mxPoint x="138.421768707483" y="830.5" as="targetPoint" />
          </mxGeometry>
        </mxCell>
        <mxCell id="134" value="" style="edgeStyle=elbowEdgeStyle;elbow=horizontal;strokeWidth=3;strokeColor=#0C343D;fontFamily=Helvetica;html=1;" parent="1" source="98" target="108" edge="1">
          <mxGeometry x="6.448979591836746" y="830.5" width="131.97278911564624" height="100" as="geometry">
            <mxPoint x="6.448979591836746" y="930.5" as="sourcePoint" />
            <mxPoint x="138.421768707483" y="830.5" as="targetPoint" />
            <Array as="points">
              <mxPoint x="1524.1360544217687" y="1030.5" />
            </Array>
          </mxGeometry>
        </mxCell>
        <mxCell id="135" value="" style="edgeStyle=elbowEdgeStyle;elbow=horizontal;strokeWidth=3;strokeColor=#0C343D;fontFamily=Helvetica;html=1;" parent="1" source="98" target="111" edge="1">
          <mxGeometry x="6.448979591836746" y="830.5" width="131.97278911564624" height="100" as="geometry">
            <mxPoint x="6.448979591836746" y="930.5" as="sourcePoint" />
            <mxPoint x="138.421768707483" y="830.5" as="targetPoint" />
          </mxGeometry>
        </mxCell>
        <mxCell id="136" value="" style="edgeStyle=elbowEdgeStyle;elbow=horizontal;strokeWidth=3;strokeColor=#0C343D;fontFamily=Helvetica;html=1;" parent="1" source="111" target="99" edge="1">
          <mxGeometry x="6.448979591836746" y="830.5" width="131.97278911564624" height="100" as="geometry">
            <mxPoint x="6.448979591836746" y="930.5" as="sourcePoint" />
            <mxPoint x="138.421768707483" y="830.5" as="targetPoint" />
          </mxGeometry>
        </mxCell>
        <mxCell id="137" value="" style="edgeStyle=elbowEdgeStyle;elbow=horizontal;strokeWidth=3;strokeColor=#0C343D;fontFamily=Helvetica;html=1;" parent="1" source="107" target="99" edge="1">
          <mxGeometry x="6.448979591836746" y="830.5" width="131.97278911564624" height="100" as="geometry">
            <mxPoint x="6.448979591836746" y="930.5" as="sourcePoint" />
            <mxPoint x="138.421768707483" y="830.5" as="targetPoint" />
          </mxGeometry>
        </mxCell>
        <mxCell id="138" value="" style="edgeStyle=elbowEdgeStyle;elbow=horizontal;strokeWidth=3;strokeColor=#0C343D;fontFamily=Helvetica;html=1;" parent="1" source="106" target="107" edge="1">
          <mxGeometry x="6.448979591836746" y="830.5" width="131.97278911564624" height="100" as="geometry">
            <mxPoint x="6.448979591836746" y="930.5" as="sourcePoint" />
            <mxPoint x="138.421768707483" y="830.5" as="targetPoint" />
          </mxGeometry>
        </mxCell>
        <mxCell id="139" value="" style="edgeStyle=elbowEdgeStyle;elbow=horizontal;strokeWidth=3;strokeColor=#0C343D;fontFamily=Helvetica;html=1;" parent="1" source="105" target="106" edge="1">
          <mxGeometry x="6.448979591836746" y="830.5" width="131.97278911564624" height="100" as="geometry">
            <mxPoint x="6.448979591836746" y="930.5" as="sourcePoint" />
            <mxPoint x="138.421768707483" y="830.5" as="targetPoint" />
            <Array as="points">
              <mxPoint x="1524.1360544217687" y="1280.5" />
            </Array>
          </mxGeometry>
        </mxCell>
        <mxCell id="140" value="" style="group" parent="1" vertex="1" connectable="0">
          <mxGeometry x="244" y="890.5" width="646.6666666666666" height="40" as="geometry" />
        </mxCell>
        <mxCell id="141" value="頁面設計" style="strokeColor=#BAC8D3;fillColor=#5d7f99;fontSize=19;strokeWidth=2;fontFamily=Helvetica;html=1;labelBackgroundColor=none;fontColor=#FFFFFF;" parent="140" vertex="1">
          <mxGeometry width="646.6656362699642" height="40" as="geometry" />
        </mxCell>
        <mxCell id="142" value="Milestone 2" style="strokeColor=#BAC8D3;fillColor=#5d7f99;fontSize=19;strokeWidth=2;fontFamily=Helvetica;html=1;labelBackgroundColor=none;fontColor=#FFFFFF;" parent="140" vertex="1">
          <mxGeometry x="646.6656362699642" width="646.6656362699642" height="40" as="geometry" />
        </mxCell>
        <mxCell id="143" value="Milestone 3" style="strokeColor=#BAC8D3;fillColor=#5d7f99;fontSize=19;strokeWidth=2;fontFamily=Helvetica;html=1;labelBackgroundColor=none;fontColor=#FFFFFF;" parent="140" vertex="1">
          <mxGeometry x="1293.3312725399282" width="646.6666666666666" height="40" as="geometry" />
        </mxCell>
        <mxCell id="UtvhyVLNDK4xBIFaIUeJ-143" value="Lane 3.2" style="strokeColor=#BAC8D3;fillColor=#5d7f99;fontSize=19;strokeWidth=2;horizontal=0;fontFamily=Helvetica;html=1;labelBackgroundColor=none;fontColor=#FFFFFF;" parent="1" vertex="1">
          <mxGeometry x="204" y="1730.5" width="40" height="100" as="geometry" />
        </mxCell>
        <mxCell id="UtvhyVLNDK4xBIFaIUeJ-144" value="Lane 3.1" style="strokeColor=#BAC8D3;fillColor=#5d7f99;fontSize=19;strokeWidth=2;horizontal=0;fontFamily=Helvetica;html=1;labelBackgroundColor=none;fontColor=#FFFFFF;" parent="1" vertex="1">
          <mxGeometry x="204" y="1630.5" width="40" height="100" as="geometry" />
        </mxCell>
        <mxCell id="UtvhyVLNDK4xBIFaIUeJ-145" value="儲值功能" style="strokeColor=#BAC8D3;fillColor=#23445D;fontSize=24;strokeWidth=2;horizontal=0;fontFamily=Helvetica;html=1;fontColor=#FFFFFF;fontStyle=0" parent="1" vertex="1">
          <mxGeometry x="154" y="1630.5" width="50" height="200" as="geometry" />
        </mxCell>
        <mxCell id="UtvhyVLNDK4xBIFaIUeJ-146" value="" style="strokeColor=#FFFFFF;fillColor=#BAC8D3;fontSize=18;strokeWidth=2;fontFamily=Helvetica;html=1;opacity=90;" parent="1" vertex="1">
          <mxGeometry x="244" y="1630.5" width="646.6666666666666" height="100" as="geometry" />
        </mxCell>
        <mxCell id="UtvhyVLNDK4xBIFaIUeJ-147" value="" style="strokeColor=#FFFFFF;fillColor=#BAC8D3;fontSize=18;strokeWidth=2;fontFamily=Helvetica;html=1;opacity=60;" parent="1" vertex="1">
          <mxGeometry x="244" y="1730.5" width="646.6666666666666" height="100" as="geometry" />
        </mxCell>
        <mxCell id="UtvhyVLNDK4xBIFaIUeJ-148" value="" style="strokeColor=#FFFFFF;fillColor=#BAC8D3;fontSize=18;strokeWidth=2;fontFamily=Helvetica;html=1;opacity=90;" parent="1" vertex="1">
          <mxGeometry x="890.6666666666666" y="1630.5" width="646.6666666666666" height="100" as="geometry" />
        </mxCell>
        <mxCell id="UtvhyVLNDK4xBIFaIUeJ-149" value="" style="strokeColor=#FFFFFF;fillColor=#BAC8D3;fontSize=18;strokeWidth=2;fontFamily=Helvetica;html=1;opacity=60;fontStyle=4" parent="1" vertex="1">
          <mxGeometry x="890.6666666666666" y="1730.5" width="646.6666666666666" height="100" as="geometry" />
        </mxCell>
        <mxCell id="UtvhyVLNDK4xBIFaIUeJ-150" value="" style="strokeColor=#FFFFFF;fillColor=#BAC8D3;fontSize=18;strokeWidth=2;fontFamily=Helvetica;html=1;opacity=90;" parent="1" vertex="1">
          <mxGeometry x="1537.3333333333333" y="1630.5" width="646.6666666666666" height="100" as="geometry" />
        </mxCell>
        <mxCell id="UtvhyVLNDK4xBIFaIUeJ-151" value="" style="strokeColor=#FFFFFF;fillColor=#BAC8D3;fontSize=18;strokeWidth=2;fontFamily=Helvetica;html=1;opacity=60;fontStyle=4" parent="1" vertex="1">
          <mxGeometry x="1537.3333333333333" y="1730.5" width="646.6666666666666" height="100" as="geometry" />
        </mxCell>
        <mxCell id="UtvhyVLNDK4xBIFaIUeJ-152" value="Lane 3.2" style="strokeColor=#BAC8D3;fillColor=#5d7f99;fontSize=19;strokeWidth=2;horizontal=0;fontFamily=Helvetica;html=1;labelBackgroundColor=none;fontColor=#FFFFFF;" parent="1" vertex="1">
          <mxGeometry x="204" y="1930.5" width="40" height="100" as="geometry" />
        </mxCell>
        <mxCell id="UtvhyVLNDK4xBIFaIUeJ-153" value="Lane 3.1" style="strokeColor=#BAC8D3;fillColor=#5d7f99;fontSize=19;strokeWidth=2;horizontal=0;fontFamily=Helvetica;html=1;labelBackgroundColor=none;fontColor=#FFFFFF;" parent="1" vertex="1">
          <mxGeometry x="204" y="1830.5" width="40" height="100" as="geometry" />
        </mxCell>
        <mxCell id="UtvhyVLNDK4xBIFaIUeJ-154" value="會員功能" style="strokeColor=#BAC8D3;fillColor=#23445D;fontSize=24;strokeWidth=2;horizontal=0;fontFamily=Helvetica;html=1;fontColor=#FFFFFF;fontStyle=0" parent="1" vertex="1">
          <mxGeometry x="154" y="1830.5" width="50" height="200" as="geometry" />
        </mxCell>
        <mxCell id="UtvhyVLNDK4xBIFaIUeJ-155" value="" style="strokeColor=#FFFFFF;fillColor=#BAC8D3;fontSize=18;strokeWidth=2;fontFamily=Helvetica;html=1;opacity=90;" parent="1" vertex="1">
          <mxGeometry x="244" y="1830.5" width="646.6666666666666" height="100" as="geometry" />
        </mxCell>
        <mxCell id="UtvhyVLNDK4xBIFaIUeJ-156" value="" style="strokeColor=#FFFFFF;fillColor=#BAC8D3;fontSize=18;strokeWidth=2;fontFamily=Helvetica;html=1;opacity=60;" parent="1" vertex="1">
          <mxGeometry x="244" y="1930.5" width="646.6666666666666" height="100" as="geometry" />
        </mxCell>
        <mxCell id="UtvhyVLNDK4xBIFaIUeJ-157" value="" style="strokeColor=#FFFFFF;fillColor=#BAC8D3;fontSize=18;strokeWidth=2;fontFamily=Helvetica;html=1;opacity=90;" parent="1" vertex="1">
          <mxGeometry x="890.6666666666666" y="1830" width="646.6666666666666" height="100" as="geometry" />
        </mxCell>
        <mxCell id="UtvhyVLNDK4xBIFaIUeJ-158" value="" style="strokeColor=#FFFFFF;fillColor=#BAC8D3;fontSize=18;strokeWidth=2;fontFamily=Helvetica;html=1;opacity=60;fontStyle=4" parent="1" vertex="1">
          <mxGeometry x="890.6666666666666" y="1930" width="646.6666666666666" height="100" as="geometry" />
        </mxCell>
        <mxCell id="UtvhyVLNDK4xBIFaIUeJ-159" value="" style="strokeColor=#FFFFFF;fillColor=#BAC8D3;fontSize=18;strokeWidth=2;fontFamily=Helvetica;html=1;opacity=90;" parent="1" vertex="1">
          <mxGeometry x="1537.3333333333333" y="1830" width="646.6666666666666" height="100" as="geometry" />
        </mxCell>
        <mxCell id="UtvhyVLNDK4xBIFaIUeJ-160" value="" style="strokeColor=#FFFFFF;fillColor=#BAC8D3;fontSize=18;strokeWidth=2;fontFamily=Helvetica;html=1;opacity=60;fontStyle=4" parent="1" vertex="1">
          <mxGeometry x="1537.3333333333333" y="1930" width="646.6666666666666" height="100" as="geometry" />
        </mxCell>
        <mxCell id="UtvhyVLNDK4xBIFaIUeJ-161" value="Lane 3.2" style="strokeColor=#BAC8D3;fillColor=#5d7f99;fontSize=19;strokeWidth=2;horizontal=0;fontFamily=Helvetica;html=1;labelBackgroundColor=none;fontColor=#FFFFFF;" parent="1" vertex="1">
          <mxGeometry x="204.33" y="2130.5" width="40" height="100" as="geometry" />
        </mxCell>
        <mxCell id="UtvhyVLNDK4xBIFaIUeJ-162" value="Lane 3.1" style="strokeColor=#BAC8D3;fillColor=#5d7f99;fontSize=19;strokeWidth=2;horizontal=0;fontFamily=Helvetica;html=1;labelBackgroundColor=none;fontColor=#FFFFFF;" parent="1" vertex="1">
          <mxGeometry x="204.33" y="2030.5" width="40" height="100" as="geometry" />
        </mxCell>
        <mxCell id="UtvhyVLNDK4xBIFaIUeJ-163" value="後台功能" style="strokeColor=#BAC8D3;fillColor=#23445D;fontSize=24;strokeWidth=2;horizontal=0;fontFamily=Helvetica;html=1;fontColor=#FFFFFF;fontStyle=0" parent="1" vertex="1">
          <mxGeometry x="154.33" y="2030.5" width="50" height="200" as="geometry" />
        </mxCell>
        <mxCell id="UtvhyVLNDK4xBIFaIUeJ-164" value="" style="strokeColor=#FFFFFF;fillColor=#BAC8D3;fontSize=18;strokeWidth=2;fontFamily=Helvetica;html=1;opacity=60;" parent="1" vertex="1">
          <mxGeometry x="244.33" y="2130.5" width="646.6666666666666" height="100" as="geometry" />
        </mxCell>
        <mxCell id="UtvhyVLNDK4xBIFaIUeJ-165" value="" style="strokeColor=#FFFFFF;fillColor=#BAC8D3;fontSize=18;strokeWidth=2;fontFamily=Helvetica;html=1;opacity=90;" parent="1" vertex="1">
          <mxGeometry x="890.6666666666666" y="2030.5" width="646.6666666666666" height="100" as="geometry" />
        </mxCell>
        <mxCell id="UtvhyVLNDK4xBIFaIUeJ-166" value="" style="strokeColor=#FFFFFF;fillColor=#BAC8D3;fontSize=18;strokeWidth=2;fontFamily=Helvetica;html=1;opacity=60;fontStyle=4" parent="1" vertex="1">
          <mxGeometry x="890.6666666666666" y="2130.5" width="646.6666666666666" height="100" as="geometry" />
        </mxCell>
        <mxCell id="UtvhyVLNDK4xBIFaIUeJ-167" value="" style="strokeColor=#FFFFFF;fillColor=#BAC8D3;fontSize=18;strokeWidth=2;fontFamily=Helvetica;html=1;opacity=90;" parent="1" vertex="1">
          <mxGeometry x="1537.3333333333333" y="2030.5" width="646.6666666666666" height="100" as="geometry" />
        </mxCell>
        <mxCell id="UtvhyVLNDK4xBIFaIUeJ-168" value="" style="strokeColor=#FFFFFF;fillColor=#BAC8D3;fontSize=18;strokeWidth=2;fontFamily=Helvetica;html=1;opacity=60;fontStyle=4" parent="1" vertex="1">
          <mxGeometry x="1537.3333333333333" y="2130.5" width="646.6666666666666" height="100" as="geometry" />
        </mxCell>
        <mxCell id="UtvhyVLNDK4xBIFaIUeJ-169" value="" style="strokeColor=#FFFFFF;fillColor=#BAC8D3;fontSize=18;strokeWidth=2;fontFamily=Helvetica;html=1;opacity=90;" parent="1" vertex="1">
          <mxGeometry x="244" y="2030.5" width="646.6666666666666" height="100" as="geometry" />
        </mxCell>
        <mxCell id="UtvhyVLNDK4xBIFaIUeJ-170" value="" style="rounded=1;fillColor=#23445D;strokeColor=none;strokeWidth=2;fontFamily=Helvetica;html=1;gradientColor=none;" parent="1" vertex="1">
          <mxGeometry x="478.3537414965986" y="1655.5" width="127" height="50" as="geometry" />
        </mxCell>
        <mxCell id="UtvhyVLNDK4xBIFaIUeJ-171" value="" style="rounded=1;fillColor=#23445D;strokeColor=none;strokeWidth=2;fontFamily=Helvetica;html=1;gradientColor=none;" parent="1" vertex="1">
          <mxGeometry x="478.3537414965986" y="1855.5" width="127" height="50" as="geometry" />
        </mxCell>
        <mxCell id="UtvhyVLNDK4xBIFaIUeJ-172" value="" style="rounded=1;fillColor=#23445D;strokeColor=none;strokeWidth=2;fontFamily=Helvetica;html=1;gradientColor=none;" parent="1" vertex="1">
          <mxGeometry x="478.3537414965986" y="2055.5" width="127" height="50" as="geometry" />
        </mxCell>
      </root>
    </mxGraphModel>
  </diagram>
  <diagram id="WwNLCEWZyA4B30mPfyfa" name="Page-2">
    <mxGraphModel dx="1254" dy="780" grid="1" gridSize="10" guides="1" tooltips="1" connect="1" arrows="1" fold="1" page="1" pageScale="1" pageWidth="827" pageHeight="1169" math="0" shadow="0">
      <root>
        <mxCell id="KaW1TfqJIeAFHNLuegCc-0" />
        <mxCell id="KaW1TfqJIeAFHNLuegCc-1" parent="KaW1TfqJIeAFHNLuegCc-0" />
        <mxCell id="KaW1TfqJIeAFHNLuegCc-2" value="頁面" style="rounded=1;whiteSpace=wrap;html=1;fillColor=#f5f5f5;fontColor=#333333;strokeColor=#666666;fontSize=18;" vertex="1" parent="KaW1TfqJIeAFHNLuegCc-1">
          <mxGeometry x="20" y="10" width="120" height="60" as="geometry" />
        </mxCell>
        <mxCell id="KaW1TfqJIeAFHNLuegCc-3" value="選單" style="rounded=1;whiteSpace=wrap;html=1;fillColor=#dae8fc;strokeColor=#6c8ebf;fontSize=18;" vertex="1" parent="KaW1TfqJIeAFHNLuegCc-1">
          <mxGeometry x="20" y="100" width="120" height="60" as="geometry" />
        </mxCell>
        <mxCell id="KaW1TfqJIeAFHNLuegCc-4" value="燈箱視窗" style="rounded=1;whiteSpace=wrap;html=1;fillColor=#d5e8d4;strokeColor=#82b366;fontSize=18;" vertex="1" parent="KaW1TfqJIeAFHNLuegCc-1">
          <mxGeometry x="20" y="190" width="120" height="60" as="geometry" />
        </mxCell>
        <mxCell id="KaW1TfqJIeAFHNLuegCc-5" value="頁籤" style="rounded=1;whiteSpace=wrap;html=1;fillColor=#ffe6cc;strokeColor=#d79b00;fontSize=18;" vertex="1" parent="KaW1TfqJIeAFHNLuegCc-1">
          <mxGeometry x="20" y="280" width="120" height="60" as="geometry" />
        </mxCell>
        <mxCell id="KaW1TfqJIeAFHNLuegCc-6" value="選項" style="rounded=1;whiteSpace=wrap;html=1;fillColor=#fff2cc;strokeColor=#d6b656;fontSize=18;" vertex="1" parent="KaW1TfqJIeAFHNLuegCc-1">
          <mxGeometry x="20" y="380" width="120" height="60" as="geometry" />
        </mxCell>
        <mxCell id="KaW1TfqJIeAFHNLuegCc-8" value="遊戲(首頁)" style="rounded=1;whiteSpace=wrap;html=1;fillColor=#f5f5f5;strokeColor=#666666;fontSize=18;fontColor=#333333;" vertex="1" parent="KaW1TfqJIeAFHNLuegCc-1">
          <mxGeometry x="180" y="180" width="120" height="60" as="geometry" />
        </mxCell>
        <mxCell id="jJl6HKamd_gqL-oOaHwr-28" style="edgeStyle=orthogonalEdgeStyle;rounded=0;orthogonalLoop=1;jettySize=auto;html=1;exitX=0.5;exitY=1;exitDx=0;exitDy=0;entryX=0;entryY=0.5;entryDx=0;entryDy=0;fontSize=18;" edge="1" parent="KaW1TfqJIeAFHNLuegCc-1" source="KaW1TfqJIeAFHNLuegCc-9" target="jJl6HKamd_gqL-oOaHwr-16">
          <mxGeometry relative="1" as="geometry" />
        </mxCell>
        <mxCell id="jJl6HKamd_gqL-oOaHwr-29" style="edgeStyle=orthogonalEdgeStyle;rounded=0;orthogonalLoop=1;jettySize=auto;html=1;exitX=0.5;exitY=1;exitDx=0;exitDy=0;entryX=0;entryY=0.5;entryDx=0;entryDy=0;fontSize=18;" edge="1" parent="KaW1TfqJIeAFHNLuegCc-1" source="KaW1TfqJIeAFHNLuegCc-9" target="jJl6HKamd_gqL-oOaHwr-18">
          <mxGeometry relative="1" as="geometry">
            <Array as="points">
              <mxPoint x="424" y="260" />
              <mxPoint x="344" y="260" />
              <mxPoint x="344" y="480" />
            </Array>
          </mxGeometry>
        </mxCell>
        <mxCell id="KaW1TfqJIeAFHNLuegCc-9" value="知識" style="rounded=1;whiteSpace=wrap;html=1;fillColor=#f5f5f5;strokeColor=#666666;fontSize=18;fontColor=#333333;" vertex="1" parent="KaW1TfqJIeAFHNLuegCc-1">
          <mxGeometry x="364" y="180" width="120" height="60" as="geometry" />
        </mxCell>
        <mxCell id="KaW1TfqJIeAFHNLuegCc-10" value="閱讀" style="rounded=1;whiteSpace=wrap;html=1;fillColor=#f5f5f5;strokeColor=#666666;fontSize=18;fontColor=#333333;" vertex="1" parent="KaW1TfqJIeAFHNLuegCc-1">
          <mxGeometry x="548" y="180" width="120" height="60" as="geometry" />
        </mxCell>
        <mxCell id="KaW1TfqJIeAFHNLuegCc-11" value="小說" style="rounded=1;whiteSpace=wrap;html=1;fillColor=#f5f5f5;strokeColor=#666666;fontSize=18;fontColor=#333333;" vertex="1" parent="KaW1TfqJIeAFHNLuegCc-1">
          <mxGeometry x="732" y="180" width="120" height="60" as="geometry" />
        </mxCell>
        <mxCell id="KaW1TfqJIeAFHNLuegCc-12" value="電子券" style="rounded=1;whiteSpace=wrap;html=1;fillColor=#f5f5f5;strokeColor=#666666;fontSize=18;fontColor=#333333;" vertex="1" parent="KaW1TfqJIeAFHNLuegCc-1">
          <mxGeometry x="916" y="180" width="120" height="60" as="geometry" />
        </mxCell>
        <mxCell id="KaW1TfqJIeAFHNLuegCc-13" value="會員" style="rounded=1;whiteSpace=wrap;html=1;fillColor=#f5f5f5;strokeColor=#666666;fontSize=18;fontColor=#333333;" vertex="1" parent="KaW1TfqJIeAFHNLuegCc-1">
          <mxGeometry x="1100" y="180" width="120" height="60" as="geometry" />
        </mxCell>
        <mxCell id="KaW1TfqJIeAFHNLuegCc-14" value="Banner" style="rounded=1;whiteSpace=wrap;html=1;fillColor=#f8cecc;strokeColor=#b85450;fontSize=18;" vertex="1" parent="KaW1TfqJIeAFHNLuegCc-1">
          <mxGeometry x="180" y="270" width="120" height="60" as="geometry" />
        </mxCell>
        <mxCell id="jJl6HKamd_gqL-oOaHwr-1" style="edgeStyle=orthogonalEdgeStyle;rounded=0;orthogonalLoop=1;jettySize=auto;html=1;exitX=0.5;exitY=1;exitDx=0;exitDy=0;fontSize=18;" edge="1" parent="KaW1TfqJIeAFHNLuegCc-1" source="jJl6HKamd_gqL-oOaHwr-0" target="KaW1TfqJIeAFHNLuegCc-8">
          <mxGeometry relative="1" as="geometry" />
        </mxCell>
        <mxCell id="jJl6HKamd_gqL-oOaHwr-2" style="edgeStyle=orthogonalEdgeStyle;rounded=0;orthogonalLoop=1;jettySize=auto;html=1;exitX=0.5;exitY=1;exitDx=0;exitDy=0;fontSize=18;" edge="1" parent="KaW1TfqJIeAFHNLuegCc-1" source="jJl6HKamd_gqL-oOaHwr-0" target="KaW1TfqJIeAFHNLuegCc-9">
          <mxGeometry relative="1" as="geometry" />
        </mxCell>
        <mxCell id="jJl6HKamd_gqL-oOaHwr-3" style="edgeStyle=orthogonalEdgeStyle;rounded=0;orthogonalLoop=1;jettySize=auto;html=1;exitX=0.5;exitY=1;exitDx=0;exitDy=0;fontSize=18;" edge="1" parent="KaW1TfqJIeAFHNLuegCc-1" source="jJl6HKamd_gqL-oOaHwr-0" target="KaW1TfqJIeAFHNLuegCc-10">
          <mxGeometry relative="1" as="geometry" />
        </mxCell>
        <mxCell id="jJl6HKamd_gqL-oOaHwr-4" style="edgeStyle=orthogonalEdgeStyle;rounded=0;orthogonalLoop=1;jettySize=auto;html=1;exitX=0.5;exitY=1;exitDx=0;exitDy=0;fontSize=18;" edge="1" parent="KaW1TfqJIeAFHNLuegCc-1" source="jJl6HKamd_gqL-oOaHwr-0" target="KaW1TfqJIeAFHNLuegCc-11">
          <mxGeometry relative="1" as="geometry" />
        </mxCell>
        <mxCell id="jJl6HKamd_gqL-oOaHwr-5" style="edgeStyle=orthogonalEdgeStyle;rounded=0;orthogonalLoop=1;jettySize=auto;html=1;exitX=0.5;exitY=1;exitDx=0;exitDy=0;entryX=0.5;entryY=0;entryDx=0;entryDy=0;fontSize=18;" edge="1" parent="KaW1TfqJIeAFHNLuegCc-1" source="jJl6HKamd_gqL-oOaHwr-0" target="KaW1TfqJIeAFHNLuegCc-12">
          <mxGeometry relative="1" as="geometry" />
        </mxCell>
        <mxCell id="jJl6HKamd_gqL-oOaHwr-6" style="edgeStyle=orthogonalEdgeStyle;rounded=0;orthogonalLoop=1;jettySize=auto;html=1;exitX=0.5;exitY=1;exitDx=0;exitDy=0;fontSize=18;" edge="1" parent="KaW1TfqJIeAFHNLuegCc-1" source="jJl6HKamd_gqL-oOaHwr-0" target="KaW1TfqJIeAFHNLuegCc-13">
          <mxGeometry relative="1" as="geometry" />
        </mxCell>
        <mxCell id="jJl6HKamd_gqL-oOaHwr-0" value="Wakool" style="rounded=1;whiteSpace=wrap;html=1;fillColor=#d80073;fontColor=#ffffff;strokeColor=#A50040;fontSize=18;" vertex="1" parent="KaW1TfqJIeAFHNLuegCc-1">
          <mxGeometry x="640" y="30" width="120" height="60" as="geometry" />
        </mxCell>
        <mxCell id="jJl6HKamd_gqL-oOaHwr-8" value="人氣排行" style="rounded=1;whiteSpace=wrap;html=1;fillColor=#f8cecc;strokeColor=#b85450;fontSize=18;" vertex="1" parent="KaW1TfqJIeAFHNLuegCc-1">
          <mxGeometry x="180" y="360" width="120" height="60" as="geometry" />
        </mxCell>
        <mxCell id="jJl6HKamd_gqL-oOaHwr-9" value="遊戲內容" style="rounded=1;whiteSpace=wrap;html=1;fillColor=#f8cecc;strokeColor=#b85450;fontSize=18;" vertex="1" parent="KaW1TfqJIeAFHNLuegCc-1">
          <mxGeometry x="180" y="450" width="120" height="60" as="geometry" />
        </mxCell>
        <mxCell id="jJl6HKamd_gqL-oOaHwr-10" value="內容" style="rounded=1;whiteSpace=wrap;html=1;fillColor=#f8cecc;strokeColor=#b85450;fontSize=18;" vertex="1" parent="KaW1TfqJIeAFHNLuegCc-1">
          <mxGeometry x="20" y="470" width="120" height="60" as="geometry" />
        </mxCell>
        <mxCell id="jJl6HKamd_gqL-oOaHwr-11" value="功能" style="rounded=1;whiteSpace=wrap;html=1;fillColor=#e1d5e7;strokeColor=#9673a6;fontSize=18;" vertex="1" parent="KaW1TfqJIeAFHNLuegCc-1">
          <mxGeometry x="20" y="560" width="120" height="60" as="geometry" />
        </mxCell>
        <mxCell id="jJl6HKamd_gqL-oOaHwr-13" value="分類遊戲內容" style="rounded=1;whiteSpace=wrap;html=1;fillColor=#f8cecc;strokeColor=#b85450;fontSize=18;" vertex="1" parent="KaW1TfqJIeAFHNLuegCc-1">
          <mxGeometry x="180" y="540" width="120" height="60" as="geometry" />
        </mxCell>
        <mxCell id="jJl6HKamd_gqL-oOaHwr-26" value="" style="edgeStyle=orthogonalEdgeStyle;rounded=0;orthogonalLoop=1;jettySize=auto;html=1;fontSize=18;" edge="1" parent="KaW1TfqJIeAFHNLuegCc-1" source="jJl6HKamd_gqL-oOaHwr-16" target="jJl6HKamd_gqL-oOaHwr-24">
          <mxGeometry relative="1" as="geometry" />
        </mxCell>
        <mxCell id="jJl6HKamd_gqL-oOaHwr-16" value="玩英文" style="rounded=1;whiteSpace=wrap;html=1;fillColor=#ffe6cc;strokeColor=#d79b00;fontSize=18;" vertex="1" parent="KaW1TfqJIeAFHNLuegCc-1">
          <mxGeometry x="364" y="270" width="120" height="60" as="geometry" />
        </mxCell>
        <mxCell id="jJl6HKamd_gqL-oOaHwr-27" value="" style="edgeStyle=orthogonalEdgeStyle;rounded=0;orthogonalLoop=1;jettySize=auto;html=1;fontSize=18;" edge="1" parent="KaW1TfqJIeAFHNLuegCc-1" source="jJl6HKamd_gqL-oOaHwr-18" target="jJl6HKamd_gqL-oOaHwr-25">
          <mxGeometry relative="1" as="geometry" />
        </mxCell>
        <mxCell id="jJl6HKamd_gqL-oOaHwr-18" value="玩理財" style="rounded=1;whiteSpace=wrap;html=1;fillColor=#ffe6cc;strokeColor=#d79b00;fontSize=18;" vertex="1" parent="KaW1TfqJIeAFHNLuegCc-1">
          <mxGeometry x="364" y="450" width="120" height="60" as="geometry" />
        </mxCell>
        <mxCell id="jJl6HKamd_gqL-oOaHwr-20" value="玩理財" style="rounded=1;whiteSpace=wrap;html=1;fillColor=#f5f5f5;strokeColor=#666666;fontSize=18;fontColor=#333333;" vertex="1" parent="KaW1TfqJIeAFHNLuegCc-1">
          <mxGeometry x="364" y="800" width="120" height="60" as="geometry" />
        </mxCell>
        <mxCell id="jJl6HKamd_gqL-oOaHwr-21" value="影片目錄" style="rounded=1;whiteSpace=wrap;html=1;fillColor=#ffe6cc;strokeColor=#d79b00;fontSize=18;" vertex="1" parent="KaW1TfqJIeAFHNLuegCc-1">
          <mxGeometry x="364" y="890" width="120" height="60" as="geometry" />
        </mxCell>
        <mxCell id="jJl6HKamd_gqL-oOaHwr-22" value="品牌介紹" style="rounded=1;whiteSpace=wrap;html=1;fillColor=#ffe6cc;strokeColor=#d79b00;fontSize=18;" vertex="1" parent="KaW1TfqJIeAFHNLuegCc-1">
          <mxGeometry x="364" y="1060" width="120" height="60" as="geometry" />
        </mxCell>
        <mxCell id="jJl6HKamd_gqL-oOaHwr-23" value="內容" style="rounded=1;whiteSpace=wrap;html=1;fillColor=#f8cecc;strokeColor=#b85450;fontSize=18;" vertex="1" parent="KaW1TfqJIeAFHNLuegCc-1">
          <mxGeometry x="364" y="980" width="120" height="60" as="geometry" />
        </mxCell>
        <mxCell id="jJl6HKamd_gqL-oOaHwr-24" value="&lt;div&gt;玩英文&lt;/div&gt;&lt;div&gt;課程清單&lt;br&gt;&lt;/div&gt;" style="rounded=1;whiteSpace=wrap;html=1;fillColor=#f8cecc;strokeColor=#b85450;fontSize=18;" vertex="1" parent="KaW1TfqJIeAFHNLuegCc-1">
          <mxGeometry x="364" y="360" width="120" height="60" as="geometry" />
        </mxCell>
        <mxCell id="jJl6HKamd_gqL-oOaHwr-25" value="&lt;div&gt;玩理財&lt;/div&gt;&lt;div&gt;課程清單&lt;br&gt;&lt;/div&gt;" style="rounded=1;whiteSpace=wrap;html=1;fillColor=#f8cecc;strokeColor=#b85450;fontSize=18;" vertex="1" parent="KaW1TfqJIeAFHNLuegCc-1">
          <mxGeometry x="364" y="540" width="120" height="60" as="geometry" />
        </mxCell>
      </root>
    </mxGraphModel>
  </diagram>
</mxfile>
